<?xml version="1.0" encoding="utf-8"?>
<svg xmlns="http://www.w3.org/2000/svg" width="74" height="74" viewBox="0 0 74 74">
  <metadata><?xpacket begin="﻿" id="W5M0MpCehiHzreSzNTczkc9d"?>
<x:xmpmeta xmlns:x="adobe:ns:meta/" x:xmptk="Adobe XMP Core 5.6-c138 79.159824, 2016/09/14-01:09:01        ">
   <rdf:RDF xmlns:rdf="http://www.w3.org/1999/02/22-rdf-syntax-ns#">
      <rdf:Description rdf:about=""/>
   </rdf:RDF>
</x:xmpmeta>
                                                                                                    
                                                                                                   
                           
<?xpacket end="w"?></metadata>
<defs>
    <style>
      .cls-1 {
        fill: #00b5bf;
        fill-rule: evenodd;
      }
    </style>
  </defs>
  <path class="cls-1" d="M277.684,1159.6L297,1168v10H286a2.005,2.005,0,0,0-2,2v35H257c0.893-9.44-9.648-19.09-3.817-12.3L247,1195v-15a2.005,2.005,0,0,0-2-2H234v-10l18.467-8.15a13.405,13.405,0,0,0,3.927,5.29c4.326,3.5,12.441,4.05,17.461-.18a13.343,13.343,0,0,0,3.829-5.36h0Zm-35.514,59.91a2.026,2.026,0,0,0,.037,4.05,9.883,9.883,0,0,0,7.082-3.12,10.6,10.6,0,0,0,2.878-7.39,1.958,1.958,0,1,0-3.913.04,6.46,6.46,0,0,1-1.758,4.51,6.049,6.049,0,0,1-4.326,1.91h0Zm-11.349-16.56a15.9,15.9,0,0,0-2.846,4.87,16.09,16.09,0,0,0-.978,5.68,15.86,15.86,0,0,0,4.53,11.02,14.749,14.749,0,0,0,21.375-.21,15.68,15.68,0,0,0,3.339-5.38L286,1219a2.006,2.006,0,0,0,2-2v-35h11a2,2,0,0,0,2-2v-13a4.7,4.7,0,0,0-2-3l-21.845-8.86c2.031,0.85-2.007-1.6-2.638,1.45a9.352,9.352,0,0,1-3.121,5.23c-3.38,2.85-9.5,2.64-12.6.13-2.651-2.15-4.836-9.84-3.288-5.41a1.92,1.92,0,0,0-2.5-1.19L232,1164a3.6,3.6,0,0,0-2,3v13a2.005,2.005,0,0,0,2,2h11l0.131,7.82a1.909,1.909,0,0,0-2.793.38l-9.517,12.75h0Zm0.806,6.29a11.622,11.622,0,0,1,2.114-3.6c0.05-.06.1-0.11,0.142-0.17l8.055-10.8,1.677,2.16,6.581,8.48h0a0.762,0.762,0,0,0,.1.11,11.743,11.743,0,0,1,2.226,3.61,12.139,12.139,0,0,1,.411,7.34l0,0.01,0,0.02,0,0.01,0,0.01h0a11.694,11.694,0,0,1-2.81,5.05,10.929,10.929,0,0,1-15.843.16,11.764,11.764,0,0,1-3.356-8.17,11.892,11.892,0,0,1,.716-4.22h0Z" transform="translate(-227 -1155)"/>
</svg>
