<?xml version="1.0" encoding="utf-8"?>
<svg version="1.1" id="Слой_1" xmlns="http://www.w3.org/2000/svg" width="71" height="71" x="0px" y="0px"
	 viewBox="0 0 71 70.2" style="enable-background:new 0 0 71 70.2;" xml:space="preserve">
<style type="text/css">
	.st0{fill:#00B5BF;}
</style>
<g>
	<path class="st0" d="M17.5,58.6c-0.1,0-0.1-0.1-0.2-0.2c-0.6-0.5-1.3-0.7-2-0.7c-1.7,0-3,1.3-3,3c0,0.8,0.3,1.6,0.9,2.2
		c1.2,1.2,3.1,1.2,4.3,0c0,0,0,0,0,0h0l0,0C18.7,61.7,18.7,59.8,17.5,58.6C17.5,58.6,17.5,58.6,17.5,58.6z M14.9,61.1L14.9,61.1
		l0.4-0.4L14.9,61.1z"/>
	<path class="st0" d="M70.9,35.5L70.9,35.5L63.3,7.5c-0.2-0.6-0.6-1-1.2-1.2l-15-6.1c-0.7-0.3-1.7-0.3-3.1,1l-6,6l-7-6
		c-1.5-1.2-2.4-1.3-3-1L13.4,6c-0.5,0.2-0.9,0.6-1,1.1l-3.9,9.1H2c-1.1,0.1-1.9,0.9-2,2v13c0,2.5,1,5,2.7,6.8c1.7,1.7,4,2.7,6.4,2.7
		h0.1c-0.2,2.1-0.5,4.6-0.8,7C7.6,54,6.9,60.4,7,62v0c0,3.6,1.9,8.1,8.4,8.1c2.2,0.1,4.4-0.7,6-2.2c1.6-1.6,2.4-3.7,2.4-6
		c0-0.5-0.1-1.6-0.2-3.1l0.5,0.3h30c1,0,1.5-1.1,1.5-2.1c0-0.1,0-0.3-0.1-0.4l-5.1-23.2l3.1-10.1l8.2,16.5c0.5,0.9,1.5,1.3,2.5,0.8
		l0,0l5.9-3.1C70.8,37.2,71.2,36.3,70.9,35.5z M4,20.2h5v3c0,1.1,0.9,2,2,2s2-0.9,2-2v-3h5v3c0,1.1,0.9,2,2,2s2-0.9,2-2v-3h5v7H4
		V20.2z M18.8,65.4c-1,0.8-2.2,1.2-3.5,1.1c-3.7,0-4.7-2.5-4.7-4.5c0-0.1,0-0.1,0-0.2c0-1.2,0.7-7.5,1.4-13.8
		c0.3-2.6,0.6-5.1,0.8-7.4l5,0h0c0.2,2.3,0.5,4.8,0.8,7.3c0.7,6.3,1.4,12.7,1.4,14C20.1,63.3,19.7,64.5,18.8,65.4z M9,37.2
		c-1.4-0.1-2.8-0.7-3.7-1.7c-1-1-1.3-2.8-1.3-4.3h23c0,1.5,0,3.3-1,4.3c-1.1,1.1-2.5,1.7-4,1.7H9z M64.1,36.6l-9.4-19
		c-0.2-0.5-0.6-0.8-1.1-0.9c-1-0.3-2,0.2-2.3,1.2L47,31.2h-7c-1.1,0-2,0.9-2,2s0.9,2,2,2h7l4,20l-27.9,0.1c-0.2-2.3-0.5-5-0.8-7.7
		c-0.3-2.4-0.5-4.9-0.8-6.9h0.6c2.4,0,4.7-0.9,6.4-2.6c1.6-1.9,2.5-4.3,2.4-6.8v-13c-0.1-1.1-0.9-1.9-2-2H12.5l3.5-7l12.9-5.1
		l7.1,7.1v15c0,1.1,0.9,2,2,2s2-0.9,2-2v-15l7-7l13,5L67,35L64.1,36.6z"/>
</g>
</svg>
