<?xml version="1.0" encoding="utf-8"?>
<svg xmlns="http://www.w3.org/2000/svg" width="74" height="74" viewBox="0 0 74 74">
  <metadata><?xpacket begin="﻿" id="W5M0MpCehiHzreSzNTczkc9d"?>
<x:xmpmeta xmlns:x="adobe:ns:meta/" x:xmptk="Adobe XMP Core 5.6-c138 79.159824, 2016/09/14-01:09:01        ">
   <rdf:RDF xmlns:rdf="http://www.w3.org/1999/02/22-rdf-syntax-ns#">
      <rdf:Description rdf:about=""/>
   </rdf:RDF>
</x:xmpmeta>
                                                                                                    
                                                                                                    
                                                                                                   
                           
<?xpacket end="w"?></metadata>
<defs>
    <style>
      .cls-1 {
        fill: #00b5bf;
        fill-rule: evenodd;
      }
    </style>
  </defs>
  <path class="cls-1" d="M1636.76,1186.87a1.926,1.926,0,0,1-.04,3.85,10.4,10.4,0,0,1-7.44-3.25,10.851,10.851,0,0,1-3.01-7.67,1.881,1.881,0,1,1,3.76.04,7,7,0,0,0,1.94,4.94,6.721,6.721,0,0,0,4.79,2.09h0Zm-6.81,20.52a10.231,10.231,0,0,1,6.52,3.15,10.579,10.579,0,0,1,2.72,5.16l21.36,0.24a10.622,10.622,0,0,1,2.83-5.11,10.213,10.213,0,0,1,6.58-3h0.01l0.1-.01h0.15l0.12-.01h0.53l0.13,0.01h0.14l0.11,0.01h0.1l0.03,0.01h0.02l0.11,0.01h0a10.22,10.22,0,0,1,6.52,3.14,10.665,10.665,0,0,1,2.73,5.17l2.28,0.03,0.12-10.58-5.03-.05a1.926,1.926,0,0,1,.04-3.85l5.03,0.06,0.01-1.66-9.99-6.45-15.43-.17a1.9,1.9,0,0,1-1.86-1.95l0.08-8.06a1.881,1.881,0,1,1,3.76.04l-0.06,6.14,11.36,0.13-6.78-19.06-14.51-.16,0.02,0.02,0.02,0.03,0.03,0.05,0.01,0.01,0.04,0.05v0.01l0.03,0.05,0.04,0.05,0.04,0.05v0.01l0.03,0.05,0.02,0.02,0.02,0.04,0.03,0.04,0.01,0.01,0.04,0.06v0.01l0.03,0.05,0.02,0.02,0.02,0.03,0.03,0.05v0.01l0.04,0.06,0.01,0.01,0.02,0.04,0.03,0.04,0.01,0.02,0.04,0.06h0l0.03,0.05,0.01,0.03,0.02,0.03,0.03,0.05,0.01,0.01,0.03,0.06,0.01,0.01,0.03,0.05,0.03,0.05,0.03,0.06h0l0.04,0.06,0.01,0.02,0.02,0.04,0.02,0.04,0.01,0.02,0.03,0.06h0.01l0.04,0.08,0.02,0.04,0.02,0.05,0.01,0.01,0.03,0.06,0.01,0.01,0.02,0.04,0.02,0.04,0.01,0.02,0.03,0.06h0l0.04,0.07,0.01,0.02,0.02,0.04,0.02,0.04,0.01,0.02,0.03,0.06h0l0.03,0.06,0.01,0.03,0.02,0.03,0.02,0.05V1173l0.03,0.06,0.01,0.02,0.02,0.04,0.02,0.04,0.01,0.02,0.03,0.07h0l0.03,0.06,0.01,0.02,0.02,0.04,0.02,0.05v0.01l0.03,0.06,0.01,0.01,0.02,0.06,0.01,0.03,0.01,0.03,0.03,0.06h0l0.03,0.06v0.02l0.02,0.05,0.02,0.04,0.01,0.02,0.02,0.06,0.01,0.01,0.03,0.09,0.01,0.03,0.03,0.05v0.01l0.02,0.07,0.01,0.01,0.02,0.05,0.01,0.04,0.01,0.02,0.03,0.07a16.692,16.692,0,0,1,1.02,5.93,16.52,16.52,0,0,1-4.8,11.51,15.748,15.748,0,0,1-22.61-.25,16.63,16.63,0,0,1-3.41-17.52l0.03-.06,0.01-.03,0.01-.04,0.02-.04,0.01-.02,0.02-.06,0.01-.01,0.02-.06,0.01-.03,0.02-.03,0.02-.06h0l0.03-.06,0.01-.02,0.02-.05,0.01-.04,0.01-.02,0.03-.06h0l0.03-.06,0.01-.03,0.02-.03,0.02-.05,0.01-.02,0.02-.06,0.01-.01,0.02-.05,0.02-.03,0.01-.03,0.03-.06h0l0.03-.06,0.01-.02,0.02-.04,0.02-.05,0.01-.02,0.03-.06h0l0.03-.06,0.02-.02,0.01-.04,0.03-.05v-0.01l0.03-.06,0.01-.01,0.03-.05,0.02-.03,0.01-.03,0.03-.05h0l0.03-.06,0.01-.03,0.02-.03,0.03-.05,0.01-.01,0.03-.06v-0.01l0.03-.05,0.02-.03,0.02-.03,0.02-.05,0.01-.01,0.03-.06,0.01-.01,0.03-.04,0.02-.04,0.04-.08h0.01l0.03-.06,0.01-.02,0.04-.06,0.01-.02,0.01-.01,0.03-.06,0.01-.01,0.03-.05,0.02-.03,0.02-.02,0.03-.06h0l0.04-.06,0.01-.01,0.02-.04,0.03-.04,0.04-.07h0.01v-0.01l0.04-.05,0.01-.02,0.05-.07v-0.01l0.01-.01,0.04-.06,0.01-.01,0.03-.04,0.02-.03,0.01-.03,0.04-.05h0l0.04-.06,0.01-.01,0.11-.15h0l0.08-.11-2.99-.03a3.8,3.8,0,0,0-2.72,1.12,3.964,3.964,0,0,0-1.15,2.75l-0.29,26.92,9.67,0.1a1.926,1.926,0,0,1-.04,3.85l-9.67-.11-0.11,10.58,2.21,0.02a10.636,10.636,0,0,1,2.83-5.1,10.224,10.224,0,0,1,6.58-3.01h0.13l0.04-.01h0.22l0.12-.01h0.27l0.13,0.01h0.25l0.02,0.01h0.11l0.1,0.01h0.05l0.11,0.01h0Zm9.36,12.16a10.634,10.634,0,0,1-3,5.96,10.182,10.182,0,0,1-14.65-.16,10.673,10.673,0,0,1-2.87-6.02l-3.93-.05a1.9,1.9,0,0,1-1.86-1.94l0.15-14.42,0.31-28.84a7.8,7.8,0,0,1,2.28-5.45,7.466,7.466,0,0,1,5.39-2.22l5.99,0.06,8.49-10.77a1.85,1.85,0,0,1,2.64-.29,1.562,1.562,0,0,1,.33.35l8.24,10.93,18.81,0.2a1.9,1.9,0,0,1,1.79,1.4l7.89,22.18,10.8,6.98a1.941,1.941,0,0,1,.87,1.64h0.01l-0.05,4.64-0.15,14.42a1.914,1.914,0,0,1-1.91,1.9l-4.01-.04a10.666,10.666,0,0,1-3,5.96,10.2,10.2,0,0,1-14.65-.16,10.7,10.7,0,0,1-2.87-6.03l-21.04-.23h0Zm-5.53-6.32a6.477,6.477,0,0,0-4.37-2.02h-0.03l-0.07-.01h-0.45a6.534,6.534,0,0,0-4.41,1.92,6.86,6.86,0,0,0-.1,9.54,6.5,6.5,0,0,0,9.33.11,6.805,6.805,0,0,0,1.99-4.75c0-.11,0-0.22-0.01-0.33h0v-0.02a6.765,6.765,0,0,0-1.88-4.44h0Zm41.56,0.45a6.521,6.521,0,0,0-4.37-2.02h-0.19l-0.08-.01h-0.17l-0.08.01h-0.03a6.489,6.489,0,0,0-4.41,1.92,6.86,6.86,0,0,0-.1,9.54,6.486,6.486,0,0,0,9.33.1,6.787,6.787,0,0,0,1.99-4.75c0-.11,0-0.21-0.01-0.32v-0.03a6.808,6.808,0,0,0-1.88-4.44h0Zm-45.81-44.15a1.667,1.667,0,0,1-.12.16l-1.41,1.78-0.12.15h0l-0.02.02-0.03.03c-0.06.07-.13,0.14-0.19,0.21h0l-0.02.03-0.03.03-0.01.02-0.03.03-0.02.02-0.03.04-0.04.05h0l-0.02.03-0.03.03-0.02.02-0.02.03-0.05.06-0.02.02-0.02.03-0.02.03-0.02.03-0.05.05-0.02.03-0.02.03-0.02.03-0.02.03-0.04.05-0.01.01-0.02.02-0.02.03-0.02.03-0.02.03-0.02.03-0.02.03-0.02.03-0.02.02-0.04.06-0.03.04-0.01.02-0.03.04-0.01.02-0.04.06-0.03.04-0.01.02-0.03.04-0.01.02-0.03.03-0.01.03-0.04.06-0.03.04-0.01.02h0l-0.07.12-0.03.04-0.01.02-0.04.06-0.02.04-0.01.02-0.03.04-0.01.02-0.03.05-0.01.01-0.02.05-0.01.02-0.04.06-0.02.04-0.01.02-0.03.05-0.01.01-0.02.05-0.01.02-0.03.04-0.01.02-0.02.05-0.01.01-0.03.05v0.02l-0.03.06-0.03.05-0.01.01-0.02.06-0.01.01-0.03.05v0.01l-0.03.06v0.01l-0.03.05v0.01l-0.03.06h0l-0.03.06v0.01l-0.03.06h0l-0.03.07-0.03.06v0.01l-0.03.06h0l-0.03.06v0.01l-0.03.06h0l-0.02.07h-0.01l-0.02.07h0l-0.03.06h0l-0.03.07a12.944,12.944,0,0,0-.87,4.53,12.6,12.6,0,0,0,3.49,8.88,12.052,12.052,0,0,0,17.29.19,12.758,12.758,0,0,0,2.89-13.35l-0.02-.06v-0.01l-0.03-.06h0l-0.02-.07h0l-0.03-.07h0l-0.03-.06v-0.01l-0.02-.06h0l-0.03-.07h0l-0.03-.06v-0.01l-0.03-.06v-0.01l-0.02-.05-0.01-.01-0.02-.06-0.01-.01-0.02-.05-0.01-.01-0.02-.06-0.01-.01-0.02-.05-0.01-.02-0.02-.05-0.01-.01-0.02-.05-0.01-.02-0.02-.05-0.01-.01-0.02-.05-0.01-.02-0.02-.05-0.01-.01-0.03-.05-0.01-.02-0.02-.04-0.01-.02-0.02-.05-0.01-.02-0.03-.04-0.01-.02-0.02-.04-0.01-.02-0.02-.04-0.01-.03-0.03-.04-0.01-.02-0.02-.04-0.01-.02-0.03-.04-0.01-.02-0.02-.04-0.01-.03-0.03-.03-0.01-.03-0.02-.03-0.02-.03-0.02-.04-0.01-.02-0.02-.04-0.02-.03-0.02-.03-0.02-.03-0.02-.03-0.02-.03-0.02-.03-0.02-.03-0.01-.03-0.02-.03-0.02-.03-0.02-.03-0.04-.06h0l-0.02-.03-0.02-.03-0.02-.03-0.02-.03-0.02-.02-0.02-.04-0.02-.02-0.02-.04-0.02-.02-0.02-.04-0.02-.02-0.02-.04-0.02-.02-0.04-.06-0.03-.03-0.01-.02-0.03-.04-0.01-.02-0.03-.04-0.01-.02-0.03-.04-0.02-.01-0.03-.05-0.01-.01-0.03-.04-0.01-.02-0.03-.04-0.02-.01-0.03-.05-0.01-.01-0.03-.04-0.01-.01-0.04-.05-0.01-.01-0.03-.04-0.01-.01-0.04-.05-0.01-.01-0.03-.04-0.01-.01-0.04-.05-0.01-.01-0.01-.01-0.03-.04-0.04-.05-0.01-.01-0.04-.04v-0.01h0a1.07,1.07,0,0,1-.14-0.16l-1.43-1.9h0l-7.36-9.76-7.51,9.52h0Z" transform="translate(-1613 -1155)"/>
</svg>
