<?xml version="1.0" encoding="utf-8"?>
<svg xmlns="http://www.w3.org/2000/svg" width="62" height="71" viewBox="0 0 62 71">
  <metadata><?xpacket begin="﻿" id="W5M0MpCehiHzreSzNTczkc9d"?>
<x:xmpmeta xmlns:x="adobe:ns:meta/" x:xmptk="Adobe XMP Core 5.6-c138 79.159824, 2016/09/14-01:09:01        ">
   <rdf:RDF xmlns:rdf="http://www.w3.org/1999/02/22-rdf-syntax-ns#">
      <rdf:Description rdf:about=""/>
   </rdf:RDF>
</x:xmpmeta>
                                                                                                    
                                                                                                    
                                                                                                    
                                                                                                    
                                                                                                    
                                                                                                    
                                                                                                    
                                                                                                    
                                                                                                    
                                                                                                    
                                                                                                    
                                                                                                    
                                                                                                    
                                                                                                    
                                                                                                    
                                                                                                    
                                                                                                    
                                                                                                    
                                                                                                    
                                                                                                    
                           
<?xpacket end="w"?></metadata>
<defs>
    <style>
      .cls-1 {
        fill: #00b5bf;
        fill-rule: evenodd;
      }
    </style>
  </defs>
  <path id="Shape_3_copy" data-name="Shape 3 copy" class="cls-1" d="M519,1157a10.533,10.533,0,0,0-6.727,2.92A10.116,10.116,0,0,0,509,1167v51a9.287,9.287,0,0,0,2.983,6.84A11.928,11.928,0,0,0,519,1228h42a10.64,10.64,0,0,0,6.731-2.92A10.108,10.108,0,0,0,571,1218l0.009-50.75a9.85,9.85,0,0,0-2.987-7.09A11.584,11.584,0,0,0,561,1157H519Zm12.013,8a2,2,0,1,0,2,2.01,2,2,0,0,0-2-2.01h0Zm-9-.01a2,2,0,1,0,2,2.01,1.995,1.995,0,0,0-2-2.01h0Zm35.988,4.01a1.99,1.99,0,0,0,.017-3.98l-8.036-.03a1.99,1.99,0,0,0-.017,3.98l8.036,0.03h0Zm9,8v41a6.207,6.207,0,0,1-2.008,4.38A6.3,6.3,0,0,1,561,1224H519a6.631,6.631,0,0,1-4.255-1.83A5.514,5.514,0,0,1,513,1218v-41h54Zm0-4H513v-6a6.252,6.252,0,0,1,2.012-4.39A6.451,6.451,0,0,1,519,1161h42a7.152,7.152,0,0,1,4.259,1.83A5.5,5.5,0,0,1,567,1167v6h0Zm-43.2,27.64c2.628,0.27,3.373,1.1,4.026,1.82a5.572,5.572,0,0,0,4.97,2.28c3.519,0.02,4.567-1.9,5.581-3.75,0.423-.77.832-1.51,1.635-1.51s1.206,0.75,1.622,1.53c1,1.86,2.029,3.78,5.546,3.79a5.564,5.564,0,0,0,4.992-2.23c0.658-.72,1.409-1.54,4.028-1.79a15.555,15.555,0,0,1-4.794,10.93,16.488,16.488,0,0,1-22.912-.1,15.526,15.526,0,0,1-4.694-10.97h0Zm36.122-1.91c0-.03,0-0.05-0.006-0.07a19.216,19.216,0,0,0-5.709-11.89,20.374,20.374,0,0,0-28.289-.12,19.143,19.143,0,0,0-.123,27.57,20.373,20.373,0,0,0,28.288.12A19.2,19.2,0,0,0,560,1200.58c0-.63-0.025-1.24-0.082-1.85h0Zm-4.1-1.64c-4.047.36-5.344,1.78-6.478,3.02a2.438,2.438,0,0,1-2.149.99c-1.237-.01-1.727-0.92-2.2-1.8-0.958-1.79-1.885-3.51-4.968-3.53s-4.026,1.71-5,3.49c-0.48.87-.978,1.78-2.216,1.78a2.451,2.451,0,0,1-2.141-1.01c-1.124-1.25-2.409-2.69-6.464-3.08a15.636,15.636,0,0,1,4.385-7.67,16.49,16.49,0,0,1,22.914.1,15.621,15.621,0,0,1,4.317,7.71h0Z" transform="translate(-509 -1157)"/>
</svg>
