<?xml version="1.0" encoding="utf-8"?>
<svg xmlns="http://www.w3.org/2000/svg" width="74" height="80" viewBox="0 0 74 80">
  <metadata><?xpacket begin="﻿" id="W5M0MpCehiHzreSzNTczkc9d"?>
<x:xmpmeta xmlns:x="adobe:ns:meta/" x:xmptk="Adobe XMP Core 5.6-c138 79.159824, 2016/09/14-01:09:01        ">
   <rdf:RDF xmlns:rdf="http://www.w3.org/1999/02/22-rdf-syntax-ns#">
      <rdf:Description rdf:about=""/>
   </rdf:RDF>
</x:xmpmeta>
                                                                                                    
                          
<?xpacket end="w"?></metadata>
<defs>
    <style>
      .cls-1 {
        fill: #00b5bf;
        fill-rule: evenodd;
      }
    </style>
  </defs>
  <path class="cls-1" d="M1115.64,1177.65l-11.48.1-0.07-8.38a18.389,18.389,0,0,0-5.59-13.04,18.64,18.64,0,0,0-31.69,13.36l0.08,8.38-11.6.1a7.488,7.488,0,0,0-2.18.34,5.587,5.587,0,0,0-3.13,2.42,6.687,6.687,0,0,0-.93,3.63,9.847,9.847,0,0,0,.52,3.03l3.93,12.1-0.85,1.1a18.028,18.028,0,0,0,.82,25,18.349,18.349,0,0,0,25.82-.22,18.04,18.04,0,0,0,4.81-8.83l1.7-.01,20.46-.18a7.635,7.635,0,0,0,5.93-2.78,14.525,14.525,0,0,0,2.78-5.4l6.55-21.39a10.144,10.144,0,0,0,.47-3.04,6.759,6.759,0,0,0-1-3.62,5.6,5.6,0,0,0-3.17-2.37,7.509,7.509,0,0,0-2.18-.3h0Zm-17.86,15.84,0.03,2.69a2.145,2.145,0,0,0,4.29-.03l-0.02-2.7,1.17-.01a2.13,2.13,0,1,0-.03-4.26l-3.33.02-29.18.25-2.97-3.68-0.01-.01a1.741,1.741,0,0,0-.12-0.14h0l-0.01-.01-0.03-.03h0l-0.01-.01h0l-0.01-.01-0.01-.01-0.01-.01h0l-0.01-.01h0l-0.01-.01-0.01-.01-0.02-.01v-0.01a2.768,2.768,0,0,0-.45-0.31h0l-0.04-.02h-0.01l-0.03-.02-0.03-.01h-0.01a1.992,1.992,0,0,0-.79-0.19h-0.15l-0.05.01a2.179,2.179,0,0,0-.79.19l-0.01.01-0.03.01-0.02.01-0.01.01-0.04.02h0a1.623,1.623,0,0,0-.43.31h-0.01l-0.01.01h0l-0.01.01-0.01.01-0.01.01h0l-0.01.01h-0.01v0.01h0l-0.01.01h0l-0.02.02h-0.01v0.01l-0.03.03a1.826,1.826,0,0,0-.13.16l-4.07,5.22-3.57,4.59-3.03-9.32a6.17,6.17,0,0,1-.31-1.77,2.728,2.728,0,0,1,.3-1.37,1.4,1.4,0,0,1,.78-0.59,3.29,3.29,0,0,1,.91-0.12l13.74-.12,16.43-.14,16.55-.14,13.63-.12a3.249,3.249,0,0,1,.9.11,1.4,1.4,0,0,1,.79.57,2.618,2.618,0,0,1,.33,1.37,6.08,6.08,0,0,1-.28,1.77l-6.55,21.4a10.852,10.852,0,0,1-1.91,3.85,3.554,3.554,0,0,1-2.73,1.29l-20.47.18-1.24.01v-0.1l-0.01-.1v-0.11h0v-0.11h0l-0.01-.1h0v-0.11l-0.01-.1v-0.01l-0.01-.09v-0.1l-0.01-.02v-0.11l-0.01-.08v-0.02l-0.01-.08v-0.03l-0.01-.07v-0.04l-0.01-.07v-0.03l-0.01-.07v-0.04l-0.01-.06-0.01-.04v-0.06l-0.01-.05-0.01-.05v-0.06l-0.01-.08-0.01-.02v-0.05l-0.01-.05-0.01-.05-0.01-.06v-0.04l-0.01-.06-0.01-.04-0.01-.07v-0.03l-0.01-.07-0.01-.03-0.01-.08-0.01-.02-0.01-.08v-0.02l-0.02-.08v-0.02l-0.02-.09v-0.01l-0.02-.09v-0.01l-0.02-.09v-0.01l-0.02-.09v-0.01l-0.02-.1h0l-0.02-.1h0l-0.02-.1-0.03-.1h0l-0.02-.09v-0.02l-0.02-.08-0.01-.02-0.02-.08v-0.02l-0.02-.08-0.01-.02-0.02-.08v-0.02l-0.02-.07-0.01-.03-0.02-.07-0.01-.03v-0.01l-0.05-.19-0.02-.06-0.01-.04-0.02-.06-0.01-.04-0.02-.05-0.01-.05-0.02-.05-0.01-.05h0l-0.03-.09v-0.01l-0.02-.04-0.01-.06-0.06-.17-0.01-.02-0.01-.04-0.02-.06-0.04-.1-0.01-.03-0.02-.07-0.01-.02-0.03-.07v-0.02l-0.03-.08-0.04-.1v-0.01l-0.03-.08-0.01-.01-0.03-.09v-0.01l-0.04-.09h0l-0.04-.09a18.142,18.142,0,0,0-3.54-5.58l-5.54-6.87,23.64-.2h0Zm-30.62-1.62a2.154,2.154,0,0,0,1.41,1.74l7.79,9.65c0.05,0.06.1,0.11,0.15,0.16h0l0.02,0.02,0.03,0.04c0.07,0.08.14,0.16,0.21,0.23l0.01,0.01,0.02,0.02,0.03,0.04,0.02,0.02,0.03,0.04,0.02,0.02,0.03,0.04,0.05,0.06h0.01l0.02,0.03,0.03,0.03,0.02,0.03,0.03,0.03,0.05,0.06,0.02,0.03,0.03,0.04,0.02,0.03,0.03,0.03,0.05,0.06,0.02,0.03,0.03,0.03,0.02,0.04,0.02,0.03,0.05,0.06h0l0.03,0.03,0.02,0.03,0.03,0.04,0.02,0.03,0.02,0.03,0.03,0.03,0.02,0.04,0.02,0.03,0.05,0.06,0.03,0.04,0.01,0.03,0.03,0.03,0.02,0.03,0.05,0.07,0.02,0.04,0.02,0.02,0.03,0.04,0.02,0.03,0.02,0.04,0.02,0.02,0.04,0.07,0.03,0.04,0.02,0.03,0.03,0.04,0.01,0.02,0.04,0.07,0.03,0.05,0.02,0.02,0.04,0.07,0.03,0.04,0.01,0.03,0.03,0.04,0.01,0.02,0.03,0.05,0.01,0.02,0.03,0.05,0.01,0.02,0.04,0.07,0.03,0.05,0.01,0.02,0.03,0.05,0.01,0.02,0.03,0.05,0.01,0.02,0.03,0.05,0.01,0.02,0.03,0.05,0.01,0.02,0.03,0.06v0.01l0.04,0.07,0.03,0.06,0.01,0.01,0.03,0.06v0.01l0.04,0.06v0.01l0.03,0.06,0.01,0.01,0.03,0.07v0.01l0.03,0.06,0.01,0.01,0.03,0.06v0.01l0.03,0.07h0.01l0.03,0.08,0.03,0.06v0.01l0.03,0.07h0l0.03,0.07,0.01,0.01,0.03,0.07h0l0.03,0.07h0l0.03,0.08h0l0.03,0.07h0l0.03,0.08a13.947,13.947,0,1,1-26.93,5.26,13.581,13.581,0,0,1,.9-5.04,13.943,13.943,0,0,1,2.64-4.31c0.06-.06.11-0.12,0.16-0.18l10.06-12.93,1.09,1.36h0Zm-0.83,28.46a2.135,2.135,0,1,0,.04,4.27,12.1,12.1,0,0,0,8.5-3.58,11.936,11.936,0,0,0,3.46-8.51,2.15,2.15,0,0,0-4.3.04,7.642,7.642,0,0,1-2.22,5.47,7.791,7.791,0,0,1-5.48,2.31h0Zm33.54-42.54-14.41.12-14.28.13-0.07-8.39a14.133,14.133,0,0,1,4.13-10.1,14.341,14.341,0,0,1,20.25-.17,14.15,14.15,0,0,1,4.3,10.02l0.08,8.39h0Z" transform="translate(-1048 -1151)"/>
</svg>
