<?xml version="1.0" encoding="utf-8"?>
<!-- Generator: Adobe Illustrator 21.0.1, SVG Export Plug-In . SVG Version: 6.00 Build 0)  -->
<svg version="1.1" id="Слой_1" xmlns="http://www.w3.org/2000/svg" xmlns:xlink="http://www.w3.org/1999/xlink" x="0px" y="0px"
	 width="68" height="68" viewBox="0 0 80 80" style="enable-background:new 0 0 80 80;" xml:space="preserve">
<style type="text/css">
	.st0{fill:#00B5BF;}
</style>
<path class="st0" d="M66,21h-1v2c-0.2,0.7-0.5,1.4-1,2l-3,4c-0.5,0.6-1.2,0.9-2,1h-2v5c0,1.1-0.9,2-2,2s-2-0.9-2-2v-5h-2
	c-0.9,0-1.6-0.4-2.2-1.1L46,25c-0.4-0.6-0.8-1.3-1-2v-2H35v20H12V13c0-3.8,3.1-7,6.9-7c0,0,0,0,0.1,0h42c3.8-0.1,6.9,2.9,7,6.6
	c0,0.1,0,0.2,0,0.4v6C67.9,20.1,67.1,21,66,21z M49,22l3,4h6l3-4v-1H49V22z M64,13c0.1-1.5-1-2.9-2.6-3c-0.1,0-0.3,0-0.4,0H19
	c-1.9,0-3,0.9-3,3v28h15V19c0-1.1,0.9-2,2-2h31V13z M26.1,21l-5.3,0c-1.1-0.1-1.9-1-1.9-2.1c0.1-1,0.9-1.8,1.9-1.9l5.3,0
	c1.1,0.1,1.9,1,1.9,2.1C27.9,20.1,27.1,20.9,26.1,21z M20.9,25l5.3,0c1.1,0.1,1.9,1,1.8,2.1c-0.1,1-0.9,1.8-1.9,1.8l-5.3,0
	c-1.1-0.1-1.9-1-1.9-2.1C19.1,25.9,19.9,25.1,20.9,25z M67,74H13c-3.9,0-7-3.1-7-7V48c0-3.9,3.1-7,7-7h54c3.9,0,7,3.1,7,7v19
	C74,70.9,70.9,74,67,74z M70,48c0-1.7-1.3-3-3-3H13c-1.7,0-3,1.3-3,3v19c0,1.7,1.3,3,3,3h54c1.7,0,3-1.3,3-3V48z M8,50h63v4H8V50z"
	/>
</svg>
