<?xml version="1.0" encoding="utf-8"?>
<!-- Generator: Adobe Illustrator 21.0.1, SVG Export Plug-In . SVG Version: 6.00 Build 0)  -->
<svg version="1.1" id="Группа_2" xmlns="http://www.w3.org/2000/svg" xmlns:xlink="http://www.w3.org/1999/xlink" x="0px"
	 y="0px" viewBox="0 0 149.5 131.5" style="enable-background:new 0 0 149.5 131.5;" xml:space="preserve">
<style type="text/css">
	.st0{enable-background:new    ;}
	.st1{fill:#6B7993;}
	.st2{fill:#00B5BF;}
	.st3{fill:#FFFFFF;}
	.st4{fill:#F27CAA;}
</style>
<g class="st0">
	<path class="st1" d="M119.4,120.4h-4v7.2h-2.7v-9.4h6.7V120.4z"/>
	<path class="st1" d="M129.6,123c0,0.7-0.1,1.4-0.3,2c-0.2,0.6-0.4,1.1-0.8,1.5c-0.3,0.4-0.8,0.8-1.3,1c-0.5,0.2-1.1,0.4-1.8,0.4
		c-0.4,0-0.7,0-1-0.1s-0.6-0.2-0.9-0.3v3.5h-2.7v-12.4c0.2-0.1,0.5-0.1,0.8-0.2c0.3-0.1,0.6-0.1,1-0.2s0.7-0.1,1-0.1
		c0.4,0,0.7,0,1,0c0.8,0,1.5,0.1,2.1,0.3c0.6,0.2,1.1,0.6,1.5,1c0.4,0.4,0.7,0.9,1,1.5C129.5,121.5,129.6,122.2,129.6,123z
		 M126.9,123c0-0.8-0.2-1.5-0.6-2c-0.4-0.5-0.9-0.7-1.6-0.7c-0.2,0-0.5,0-0.7,0c-0.2,0-0.4,0-0.5,0.1v4.8c0.2,0.1,0.4,0.2,0.7,0.3
		s0.5,0.1,0.8,0.1C126.2,125.6,126.9,124.7,126.9,123z"/>
	<path class="st1" d="M139.7,127.6h-2.7v-3.7h-2.8v3.7h-2.7v-9.4h2.7v3.5h2.8v-3.5h2.7V127.6z"/>
</g>
<circle class="st2" cx="112" cy="37.4" r="37.5"/>
<g class="st0">
	<path class="st3" d="M85.8,36.9H91v2.4h-5.2V36.9z"/>
</g>
<g class="st0">
	<path class="st3" d="M89.4,29.8c0.7-0.3,1.3-0.6,2.1-0.9c0.7-0.4,1.4-0.7,2.1-1.2c0.7-0.4,1.3-0.9,2-1.3s1.2-1,1.7-1.5h3.5v23.5
		h-5.1V31.5c-0.7,0.5-1.4,0.9-2.3,1.2c-0.8,0.4-1.7,0.7-2.5,1L89.4,29.8z"/>
	<path class="st3" d="M118.6,41.5c0-0.7-0.1-1.2-0.4-1.7c-0.3-0.5-0.8-0.9-1.5-1.3c-0.7-0.3-1.7-0.6-2.9-0.8s-2.8-0.3-4.6-0.3
		c0.2-2.1,0.5-4.2,0.6-6.4c0.2-2.2,0.3-4.2,0.4-6.1h12.8v4.2h-8.5c0,0.8-0.1,1.6-0.2,2.4c-0.1,0.8-0.1,1.4-0.2,2
		c3.3,0.2,5.8,1,7.3,2.3c1.6,1.3,2.4,3.2,2.4,5.5c0,1.1-0.2,2.1-0.6,3c-0.4,0.9-1,1.7-1.7,2.4c-0.8,0.7-1.7,1.2-2.9,1.6
		s-2.5,0.6-4.1,0.6c-0.6,0-1.3,0-1.9-0.1c-0.7-0.1-1.3-0.2-1.9-0.3c-0.6-0.1-1.2-0.3-1.7-0.4s-0.9-0.3-1.2-0.4l0.9-4.2
		c0.6,0.2,1.3,0.5,2.2,0.7c0.9,0.2,2,0.4,3.3,0.4c1.6,0,2.7-0.3,3.4-0.9S118.6,42.3,118.6,41.5z"/>
</g>
<g class="st0">
	<path class="st3" d="M131.1,34.2c0,1.1-0.3,2-0.9,2.6c-0.6,0.6-1.4,0.9-2.3,0.9s-1.7-0.3-2.3-0.9s-0.9-1.5-0.9-2.6s0.3-2,0.9-2.6
		c0.6-0.6,1.4-0.9,2.3-0.9s1.7,0.3,2.3,0.9C130.8,32.2,131.1,33.1,131.1,34.2z M129.1,34.2c0-0.6-0.1-1.1-0.3-1.3
		c-0.2-0.3-0.5-0.4-0.8-0.4c-0.3,0-0.6,0.1-0.8,0.4c-0.2,0.3-0.3,0.7-0.3,1.3c0,0.6,0.1,1.1,0.3,1.3s0.5,0.4,0.8,0.4
		c0.3,0,0.6-0.1,0.8-0.4C129,35.3,129.1,34.8,129.1,34.2z M134.6,31h2.5l-7,12.4h-2.5L134.6,31z M140,40.2c0,1.1-0.3,2-0.9,2.6
		c-0.6,0.6-1.4,0.9-2.3,0.9s-1.7-0.3-2.3-0.9s-0.9-1.5-0.9-2.6c0-1.1,0.3-2,0.9-2.6s1.4-0.9,2.3-0.9s1.7,0.3,2.3,0.9
		C139.7,38.3,140,39.1,140,40.2z M138,40.2c0-0.6-0.1-1.1-0.3-1.3c-0.2-0.3-0.5-0.4-0.8-0.4c-0.3,0-0.6,0.1-0.8,0.4
		c-0.2,0.3-0.3,0.7-0.3,1.3c0,0.6,0.1,1.1,0.3,1.3c0.2,0.3,0.5,0.4,0.8,0.4c0.3,0,0.6-0.1,0.8-0.4C137.9,41.3,138,40.9,138,40.2z"/>
</g>
<g>
	<path class="st1" d="M31.6,84.8c-1,0-1.8,0.8-1.8,1.8c0,1,0.8,1.8,1.8,1.8c1,0,1.8-0.8,1.8-1.8C33.4,85.6,32.6,84.8,31.6,84.8z"/>
	<path class="st1" d="M33.4,75.8c0-1-0.8-1.8-1.8-1.8c-1,0-1.8,0.8-1.8,1.8c0,1,0.8,1.8,1.8,1.8C32.6,77.7,33.4,76.9,33.4,75.8
		C33.4,75.8,33.4,75.8,33.4,75.8z"/>
	<path class="st1" d="M31.6,95.6c-1,0-1.8,0.8-1.8,1.8c0,1,0.8,1.8,1.8,1.8c1,0,1.8-0.8,1.8-1.8C33.4,96.4,32.6,95.6,31.6,95.6z"/>
	<polygon class="st1" points="33.4,97.4 33.4,97.4 33.4,97.4 	"/>
	<path class="st1" d="M49.9,51.8l-5.9-1.1c-0.1-1-0.5-2.1-1.1-3c-1.3-2-3.5-3.2-5.8-3.2h-14c-2.4,0-4.5,1.2-5.8,3.2
		c-0.6,1-1,2.1-1.1,3.2l-4.8,0.8c-1.9,0.3-3.2,1.9-3.2,3.8V59c-0.4-0.4-1-0.5-1.6-0.4l-3.3,0.6C1.3,59.5,0,61.1,0,63l0.1,46.5
		c0,2.8,2.2,5,5,5l34-0.1c1.1,0,1.9-0.9,1.9-2c0-1.1-0.8-2-2-2.1l-34,0.1c-0.6,0-1-0.4-1-1L4,63.1l3.2-0.6c0.4-0.1,0.7-0.2,0.9-0.4
		v39.5c0,2.8,2.3,5,5,4.9H39v0c0.1,0,0.2,0,0.3,0c1.1-0.1,1.9-1,1.9-2.1c-0.1-1.1-1-1.9-2.1-1.9H29V70.7c0.3,0,0.6,0,0.9,0h0.2
		c3.7,0,5.6,1.3,7.7,2.7c1.1,0.7,2.2,1.4,3.3,2c0.6,0.3,1.3,0.2,1.9-0.1c0.6-0.4,0.9-1,0.9-1.7v-5.9c0-3.5,0-7.4,0-12.9l5.1,0.9
		v28.8c0,0,0,0,0,0c0,1.1,0.8,2,1.9,2v0c0,0,0,0,0,0c1.1,0,2-0.9,1.9-2V55.6C53,53.7,51.7,52.1,49.9,51.8z M20.5,49.9
		c0.6-0.9,1.5-1.4,2.6-1.4h14c1,0,2,0.5,2.6,1.4c0.6,0.9,0.7,2,0.3,2.9C37,59.7,34,63.9,30,66.2c-3.9-2.4-7-6.6-9.8-13.4
		C19.8,51.9,19.9,50.8,20.5,49.9z M20,67.3c0-1.8,0-3.8,0-6.1c1.5,2.5,3.2,4.6,5,6.2C23.2,68,21.5,68.9,20,70c0,0,0,0-0.1,0V67.3z
		 M25,102.5H13.1c-0.6,0-1-0.4-1-1V55.6l4-0.7c0,5.2,0,9,0,12.4v6.2c0,0.7,0.3,1.3,0.9,1.7c0.3,0.2,0.7,0.3,1.1,0.3
		c0.3,0,0.6-0.1,0.8-0.2c1.2-0.6,2.3-1.3,3.4-2c0.9-0.6,1.8-1.2,2.8-1.7V102.5z M30,70.5C30,70.5,30,70.5,30,70.5
		C30,70.5,30,70.5,30,70.5L30,70.5z M40.1,70C40.1,70,40,70,40.1,70c-1.5-1.2-3.2-2.1-5-2.6c1.8-1.6,3.5-3.7,5-6.2
		c0,2.4,0,4.5,0,6.4V70z"/>
	<polygon class="st1" points="33.4,86.6 33.4,86.6 33.4,86.6 	"/>
</g>
<g class="st0">
	<path class="st4" d="M58.4,108c0-0.6-0.1-1.2-0.4-1.6c-0.3-0.5-0.8-0.9-1.4-1.2c-0.7-0.3-1.6-0.6-2.8-0.7c-1.2-0.2-2.6-0.3-4.4-0.3
		c0.2-2,0.4-4,0.6-6c0.1-2,0.3-4,0.4-5.8h12v4h-8c0,0.8-0.1,1.5-0.1,2.2c-0.1,0.7-0.1,1.3-0.2,1.9c3.1,0.2,5.4,0.9,6.9,2.2
		c1.5,1.2,2.2,3,2.2,5.2c0,1-0.2,2-0.5,2.8c-0.4,0.9-0.9,1.6-1.6,2.3c-0.7,0.6-1.6,1.1-2.7,1.5c-1.1,0.4-2.4,0.5-3.9,0.5
		c-0.6,0-1.2,0-1.8-0.1c-0.6-0.1-1.2-0.2-1.8-0.3c-0.6-0.1-1.1-0.2-1.6-0.4c-0.5-0.1-0.8-0.3-1.1-0.4l0.9-3.9
		c0.5,0.2,1.2,0.5,2.1,0.7c0.9,0.2,1.9,0.3,3.1,0.3c1.5,0,2.5-0.3,3.2-0.9S58.4,108.8,58.4,108z"/>
	<path class="st4" d="M82.1,103.4c0,3.7-0.7,6.6-2.1,8.6c-1.4,2-3.4,3-5.9,3c-2.5,0-4.5-1-5.9-3c-1.4-2-2.1-4.9-2.1-8.6
		c0-1.9,0.2-3.5,0.6-4.9c0.4-1.4,0.9-2.6,1.6-3.6s1.5-1.7,2.5-2.2c1-0.5,2.1-0.8,3.3-0.8c2.5,0,4.5,1,5.9,3
		C81.4,96.8,82.1,99.7,82.1,103.4z M77.2,103.4c0-1.1-0.1-2.1-0.2-3c-0.1-0.9-0.3-1.7-0.5-2.4s-0.6-1.2-1-1.5
		c-0.4-0.4-0.9-0.5-1.5-0.5c-0.6,0-1.1,0.2-1.5,0.5c-0.4,0.4-0.7,0.9-1,1.5s-0.4,1.4-0.5,2.4c-0.1,0.9-0.2,1.9-0.2,3s0.1,2.1,0.2,3
		c0.1,0.9,0.3,1.7,0.5,2.4s0.6,1.2,1,1.5c0.4,0.4,0.9,0.5,1.5,0.5c0.6,0,1.1-0.2,1.5-0.5c0.4-0.4,0.7-0.9,1-1.5s0.4-1.5,0.5-2.4
		C77.2,105.5,77.2,104.5,77.2,103.4z"/>
	<path class="st4" d="M100.3,103.4c0,3.7-0.7,6.6-2.1,8.6c-1.4,2-3.4,3-5.9,3s-4.5-1-5.9-3c-1.4-2-2.1-4.9-2.1-8.6
		c0-1.9,0.2-3.5,0.6-4.9c0.4-1.4,0.9-2.6,1.6-3.6s1.5-1.7,2.5-2.2c1-0.5,2.1-0.8,3.3-0.8c2.5,0,4.5,1,5.9,3
		C99.6,96.8,100.3,99.7,100.3,103.4z M95.4,103.4c0-1.1-0.1-2.1-0.2-3c-0.1-0.9-0.3-1.7-0.5-2.4s-0.6-1.2-1-1.5
		c-0.4-0.4-0.9-0.5-1.5-0.5c-0.6,0-1.1,0.2-1.5,0.5c-0.4,0.4-0.7,0.9-1,1.5s-0.4,1.4-0.5,2.4c-0.1,0.9-0.2,1.9-0.2,3s0.1,2.1,0.2,3
		c0.1,0.9,0.3,1.7,0.5,2.4s0.6,1.2,1,1.5c0.4,0.4,0.9,0.5,1.5,0.5c0.6,0,1.1-0.2,1.5-0.5c0.4-0.4,0.7-0.9,1-1.5s0.4-1.5,0.5-2.4
		C95.4,105.5,95.4,104.5,95.4,103.4z"/>
	<path class="st4" d="M118.5,103.4c0,3.7-0.7,6.6-2.1,8.6c-1.4,2-3.4,3-5.9,3s-4.5-1-5.9-3c-1.4-2-2.1-4.9-2.1-8.6
		c0-1.9,0.2-3.5,0.6-4.9c0.4-1.4,0.9-2.6,1.6-3.6s1.5-1.7,2.5-2.2c1-0.5,2.1-0.8,3.3-0.8c2.5,0,4.5,1,5.9,3
		C117.8,96.8,118.5,99.7,118.5,103.4z M113.6,103.4c0-1.1-0.1-2.1-0.2-3c-0.1-0.9-0.3-1.7-0.5-2.4s-0.6-1.2-1-1.5
		c-0.4-0.4-0.9-0.5-1.5-0.5c-0.6,0-1.1,0.2-1.5,0.5c-0.4,0.4-0.7,0.9-1,1.5s-0.4,1.4-0.5,2.4c-0.1,0.9-0.2,1.9-0.2,3s0.1,2.1,0.2,3
		c0.1,0.9,0.3,1.7,0.5,2.4s0.6,1.2,1,1.5c0.4,0.4,0.9,0.5,1.5,0.5c0.6,0,1.1-0.2,1.5-0.5c0.4-0.4,0.7-0.9,1-1.5s0.4-1.5,0.5-2.4
		C113.5,105.5,113.6,104.5,113.6,103.4z"/>
	<path class="st4" d="M136.6,103.4c0,3.7-0.7,6.6-2.1,8.6c-1.4,2-3.4,3-5.9,3s-4.5-1-5.9-3c-1.4-2-2.1-4.9-2.1-8.6
		c0-1.9,0.2-3.5,0.6-4.9c0.4-1.4,0.9-2.6,1.6-3.6s1.5-1.7,2.5-2.2c1-0.5,2.1-0.8,3.3-0.8c2.5,0,4.5,1,5.9,3
		C135.9,96.8,136.6,99.7,136.6,103.4z M131.8,103.4c0-1.1-0.1-2.1-0.2-3c-0.1-0.9-0.3-1.7-0.5-2.4s-0.6-1.2-1-1.5
		c-0.4-0.4-0.9-0.5-1.5-0.5c-0.6,0-1.1,0.2-1.5,0.5c-0.4,0.4-0.7,0.9-1,1.5s-0.4,1.4-0.5,2.4c-0.1,0.9-0.2,1.9-0.2,3s0.1,2.1,0.2,3
		c0.1,0.9,0.3,1.7,0.5,2.4s0.6,1.2,1,1.5c0.4,0.4,0.9,0.5,1.5,0.5c0.6,0,1.1-0.2,1.5-0.5c0.4-0.4,0.7-0.9,1-1.5s0.4-1.5,0.5-2.4
		C131.7,105.5,131.8,104.5,131.8,103.4z"/>
</g>
</svg>
