<?xml version="1.0" encoding="utf-8"?>
<!-- Generator: Adobe Illustrator 21.0.1, SVG Export Plug-In . SVG Version: 6.00 Build 0)  -->
<svg version="1.1" id="Группа_3" xmlns="http://www.w3.org/2000/svg" xmlns:xlink="http://www.w3.org/1999/xlink" x="0px"
	 y="0px" viewBox="0 0 159 142" style="enable-background:new 0 0 159 142;" xml:space="preserve">
<style type="text/css">
	.st0{enable-background:new    ;}
	.st1{fill:#6B7993;}
	.st2{fill:#00B5BF;}
	.st3{fill:#FFFFFF;}
	.st4{fill:#F27CAA;}
</style>
<g class="st0">
	<path class="st1" d="M135.4,130.9h-4v7.2h-2.7v-9.4h6.7V130.9z"/>
	<path class="st1" d="M145.6,133.4c0,0.7-0.1,1.4-0.3,2c-0.2,0.6-0.4,1.1-0.8,1.5c-0.3,0.4-0.8,0.8-1.3,1c-0.5,0.2-1.1,0.4-1.8,0.4
		c-0.4,0-0.7,0-1-0.1s-0.6-0.2-0.9-0.3v3.5h-2.7v-12.4c0.2-0.1,0.5-0.1,0.8-0.2c0.3-0.1,0.6-0.1,1-0.2s0.7-0.1,1-0.1
		c0.4,0,0.7,0,1,0c0.8,0,1.5,0.1,2.1,0.3c0.6,0.2,1.1,0.6,1.5,1c0.4,0.4,0.7,0.9,1,1.5C145.5,132,145.6,132.7,145.6,133.4z
		 M142.9,133.5c0-0.8-0.2-1.5-0.6-2c-0.4-0.5-0.9-0.7-1.6-0.7c-0.2,0-0.5,0-0.7,0c-0.2,0-0.4,0-0.5,0.1v4.8c0.2,0.1,0.4,0.2,0.7,0.3
		s0.5,0.1,0.8,0.1C142.2,136,142.9,135.2,142.9,133.5z"/>
	<path class="st1" d="M155.7,138.1h-2.7v-3.7h-2.8v3.7h-2.7v-9.4h2.7v3.5h2.8v-3.5h2.7V138.1z"/>
</g>
<path class="st2" d="M116.5,0c23.4,0.1,42.3,19.1,42.2,42.5s-19.1,42.3-42.5,42.2C92.9,84.6,74,65.7,74,42.3C74,18.9,93.1,0,116.5,0
	z"/>
<g class="st0">
	<path class="st3" d="M82.8,42.5h5.8v2.7h-5.8V42.5z"/>
</g>
<g class="st0">
	<path class="st3" d="M108,36.4c0,1-0.2,1.9-0.6,2.8s-0.9,1.7-1.5,2.6c-0.6,0.8-1.3,1.6-2,2.4c-0.8,0.8-1.5,1.5-2.2,2.2
		c-0.4,0.4-0.8,0.8-1.2,1.2c-0.4,0.4-0.9,0.9-1.3,1.3c-0.4,0.5-0.8,0.9-1.1,1.3c-0.3,0.4-0.5,0.7-0.6,1h11.3v4.7H91.3
		c-0.1-0.3-0.1-0.6-0.1-1.1s0-0.7,0-0.9c0-1.2,0.2-2.3,0.6-3.3c0.4-1,0.9-2,1.5-2.8c0.6-0.9,1.3-1.7,2.1-2.4s1.6-1.5,2.4-2.3
		c0.6-0.6,1.2-1.1,1.7-1.6c0.5-0.5,1-1,1.4-1.5s0.7-1,0.9-1.5c0.2-0.5,0.3-1,0.3-1.5c0-1.1-0.3-1.9-0.9-2.3
		c-0.6-0.5-1.4-0.7-2.4-0.7c-0.7,0-1.3,0.1-1.9,0.3s-1.1,0.5-1.6,0.8c-0.5,0.3-0.9,0.6-1.3,0.9c-0.4,0.3-0.6,0.5-0.8,0.7l-2.8-3.9
		c1.1-1,2.4-1.9,3.9-2.6c1.5-0.7,3.1-1,4.8-1c1.5,0,2.9,0.2,4,0.5c1.1,0.4,2,0.9,2.8,1.5c0.7,0.6,1.3,1.4,1.6,2.3
		C107.8,34.2,108,35.3,108,36.4z"/>
	<path class="st3" d="M131,42.6c0,4.4-0.8,7.8-2.5,10.2s-4,3.5-7,3.5s-5.3-1.2-7-3.5S112,47,112,42.6c0-2.2,0.2-4.1,0.7-5.8
		c0.4-1.7,1.1-3.1,1.9-4.3c0.8-1.2,1.8-2,3-2.7c1.2-0.6,2.5-0.9,3.9-0.9c3,0,5.3,1.2,7,3.5S131,38.2,131,42.6z M125.2,42.6
		c0-1.3-0.1-2.5-0.2-3.6c-0.1-1.1-0.3-2-0.6-2.8c-0.3-0.8-0.7-1.4-1.1-1.8c-0.5-0.4-1.1-0.6-1.8-0.6s-1.3,0.2-1.8,0.6
		c-0.5,0.4-0.8,1-1.1,1.8s-0.5,1.7-0.6,2.8c-0.1,1.1-0.2,2.3-0.2,3.6c0,1.3,0.1,2.5,0.2,3.6c0.1,1.1,0.3,2,0.6,2.8s0.7,1.4,1.1,1.8
		c0.5,0.4,1.1,0.6,1.8,0.6s1.3-0.2,1.8-0.6c0.5-0.4,0.9-1,1.1-1.8c0.3-0.8,0.5-1.7,0.6-2.8C125.2,45.1,125.2,43.9,125.2,42.6z"/>
</g>
<g class="st0">
	<path class="st3" d="M139.8,39.8c0,1.3-0.3,2.2-1,2.9c-0.6,0.7-1.5,1-2.6,1s-1.9-0.3-2.6-1c-0.6-0.7-1-1.6-1-2.9
		c0-1.2,0.3-2.2,1-2.9s1.5-1,2.6-1s1.9,0.3,2.6,1C139.5,37.6,139.8,38.5,139.8,39.8z M137.6,39.8c0-0.7-0.1-1.2-0.4-1.5
		c-0.2-0.3-0.5-0.5-0.9-0.5c-0.4,0-0.7,0.2-0.9,0.5c-0.2,0.3-0.3,0.8-0.3,1.5c0,0.7,0.1,1.2,0.3,1.5c0.2,0.3,0.5,0.5,0.9,0.5
		c0.4,0,0.7-0.2,0.9-0.5C137.5,40.9,137.6,40.4,137.6,39.8z M143.7,36.2h2.8L138.7,50h-2.8L143.7,36.2z M149.7,46.5
		c0,1.3-0.3,2.2-1,2.9c-0.6,0.7-1.5,1-2.6,1s-1.9-0.3-2.6-1s-1-1.6-1-2.9c0-1.2,0.3-2.2,1-2.9c0.6-0.7,1.5-1,2.6-1s1.9,0.3,2.6,1
		C149.4,44.3,149.7,45.2,149.7,46.5z M147.5,46.5c0-0.7-0.1-1.2-0.4-1.5c-0.2-0.3-0.5-0.5-0.9-0.5c-0.4,0-0.7,0.2-0.9,0.5
		c-0.2,0.3-0.3,0.8-0.3,1.5c0,0.7,0.1,1.2,0.3,1.5c0.2,0.3,0.5,0.5,0.9,0.5c0.4,0,0.7-0.2,0.9-0.5C147.3,47.7,147.5,47.2,147.5,46.5
		z"/>
</g>
<g>
	<path class="st1" d="M31.6,106.1c-1,0-1.8,0.8-1.8,1.8c0,1,0.8,1.8,1.8,1.8c1,0,1.8-0.8,1.8-1.8C33.4,106.9,32.6,106,31.6,106.1z"
		/>
	<path class="st1" d="M33.4,86.3c0-1-0.8-1.8-1.8-1.8s-1.8,0.8-1.8,1.8c0,1,0.8,1.8,1.8,1.8C32.6,88.1,33.4,87.3,33.4,86.3
		C33.4,86.3,33.4,86.3,33.4,86.3z"/>
	<polygon class="st1" points="33.4,97.1 33.4,97.1 33.4,97.1 	"/>
	<path class="st1" d="M31.6,95.3c-1,0-1.8,0.8-1.8,1.8c0,1,0.8,1.8,1.8,1.8c1,0,1.8-0.8,1.8-1.8C33.4,96.1,32.6,95.3,31.6,95.3z"/>
	<polygon class="st1" points="33.4,107.9 33.4,107.9 33.4,107.9 	"/>
	<path class="st1" d="M49.9,62.2l-5.9-1.1c-0.1-1-0.5-2.1-1.1-3c-1.3-2-3.5-3.2-5.8-3.2H23c-2.3,0-4.5,1.2-5.8,3.2
		c-0.6,1-1,2.1-1.1,3.2l-4.8,0.8C9.4,62.5,8.1,64.1,8,66v3.5c-0.4-0.4-1-0.5-1.6-0.4l-3.3,0.6C1.3,70,0,71.6,0,73.5L0.1,120
		c0,2.7,2.2,5,5,5l34-0.1h0c1.1,0,1.9-0.9,1.9-2c0-1.1-0.8-2-2-2.1L5,121c0,0,0,0,0,0c-0.6,0-1-0.4-1-1L3.9,73.6L7.1,73
		c0.4-0.1,0.7-0.2,0.9-0.4V112c0,2.8,2.3,5,5.1,4.9H39v0c1.1,0,2-0.9,2-2c0-1.1-0.9-2-2-2H29V81.2c0.3,0,0.6,0,0.9-0.1h0.2
		c3.7,0,5.6,1.3,7.7,2.7c1.1,0.7,2.2,1.4,3.3,2c0.6,0.3,1.3,0.2,1.9-0.1c0.6-0.4,0.9-1,0.9-1.7V65.2l5.1,0.9V95c0,0,0,0,0,0
		c0,1.1,0.8,2,1.9,2l0,0c0,0,0,0,0,0c1.1,0,1.9-0.9,1.9-2V66.1C53,64.2,51.7,62.6,49.9,62.2z M20.5,60.4C21,59.5,22,59,23,59h14
		c1,0,2,0.5,2.6,1.4c0.6,0.9,0.7,2,0.3,2.9C37,70.2,34,74.4,30,76.7c-3.9-2.4-7-6.6-9.8-13.4C19.8,62.3,19.9,61.2,20.5,60.4z
		 M20,77.8v-6.1c1.5,2.5,3.2,4.6,5,6.2c-1.8,0.6-3.4,1.4-4.9,2.6c0,0,0,0-0.1,0L20,77.8z M25,113h-12c0,0,0,0,0,0c-0.6,0-1-0.4-1-1
		V66.1l4-0.7c0,5.2,0,9,0,12.4V84c0,0.7,0.3,1.3,0.9,1.7c0.3,0.2,0.7,0.3,1.1,0.3l0,0c0.3,0,0.6-0.1,0.8-0.2c1.2-0.6,2.3-1.3,3.4-2
		c0.9-0.6,1.8-1.2,2.8-1.7V113z M40.1,80.5C40.1,80.5,40,80.5,40.1,80.5c-1.6-1.2-3.2-2.1-5-2.6c1.8-1.6,3.5-3.7,5-6.2
		c0,2.4,0,4.5,0,6.4V80.5z"/>
</g>
<g class="st0">
	<path class="st4" d="M60.7,108.6c0,0.8-0.2,1.6-0.5,2.3c-0.3,0.7-0.7,1.5-1.2,2.2c-0.5,0.7-1.1,1.4-1.7,2c-0.6,0.6-1.3,1.2-1.9,1.8
		c-0.3,0.3-0.7,0.6-1,1c-0.4,0.4-0.7,0.8-1.1,1.1c-0.3,0.4-0.6,0.7-0.9,1.1c-0.3,0.3-0.4,0.6-0.5,0.8h9.5v4H46.6
		c0-0.2-0.1-0.5-0.1-0.9c0-0.4,0-0.6,0-0.8c0-1,0.2-2,0.5-2.8c0.3-0.9,0.8-1.6,1.3-2.4c0.5-0.7,1.1-1.4,1.8-2.1
		c0.7-0.6,1.3-1.3,2-1.9c0.5-0.5,1-1,1.4-1.4c0.4-0.4,0.8-0.9,1.2-1.3s0.6-0.8,0.8-1.2c0.2-0.4,0.3-0.8,0.3-1.3c0-0.9-0.3-1.6-0.8-2
		c-0.5-0.4-1.2-0.6-2-0.6c-0.6,0-1.1,0.1-1.6,0.3c-0.5,0.2-1,0.4-1.4,0.6s-0.8,0.5-1.1,0.7c-0.3,0.2-0.5,0.4-0.7,0.6l-2.4-3.3
		c0.9-0.9,2-1.6,3.3-2.2s2.6-0.8,4-0.8c1.3,0,2.4,0.1,3.4,0.4c0.9,0.3,1.7,0.7,2.3,1.3c0.6,0.5,1.1,1.2,1.3,2
		C60.6,106.8,60.7,107.7,60.7,108.6z"/>
	<path class="st4" d="M80.1,113.9c0,3.7-0.7,6.6-2.1,8.6c-1.4,2-3.4,3-5.9,3s-4.5-1-5.9-3c-1.4-2-2.1-4.9-2.1-8.6
		c0-1.9,0.2-3.5,0.6-4.9c0.4-1.4,0.9-2.6,1.6-3.6s1.5-1.7,2.5-2.2c1-0.5,2.1-0.8,3.3-0.8c2.5,0,4.5,1,5.9,3
		C79.4,107.3,80.1,110.2,80.1,113.9z M75.2,113.9c0-1.1-0.1-2.1-0.2-3c-0.1-0.9-0.3-1.7-0.5-2.4s-0.6-1.2-1-1.5
		c-0.4-0.4-0.9-0.5-1.5-0.5c-0.6,0-1.1,0.2-1.5,0.5c-0.4,0.4-0.7,0.9-1,1.5s-0.4,1.4-0.5,2.4c-0.1,0.9-0.2,1.9-0.2,3s0.1,2.1,0.2,3
		c0.1,0.9,0.3,1.7,0.5,2.4s0.6,1.2,1,1.5c0.4,0.4,0.9,0.5,1.5,0.5c0.6,0,1.1-0.2,1.5-0.5c0.4-0.4,0.7-0.9,1-1.5s0.4-1.5,0.5-2.4
		C75.2,116,75.2,115,75.2,113.9z"/>
	<path class="st4" d="M98.3,113.9c0,3.7-0.7,6.6-2.1,8.6c-1.4,2-3.4,3-5.9,3s-4.5-1-5.9-3c-1.4-2-2.1-4.9-2.1-8.6
		c0-1.9,0.2-3.5,0.6-4.9c0.4-1.4,0.9-2.6,1.6-3.6s1.5-1.7,2.5-2.2c1-0.5,2.1-0.8,3.3-0.8c2.5,0,4.5,1,5.9,3
		C97.6,107.3,98.3,110.2,98.3,113.9z M93.4,113.9c0-1.1-0.1-2.1-0.2-3c-0.1-0.9-0.3-1.7-0.5-2.4s-0.6-1.2-1-1.5
		c-0.4-0.4-0.9-0.5-1.5-0.5c-0.6,0-1.1,0.2-1.5,0.5c-0.4,0.4-0.7,0.9-1,1.5s-0.4,1.4-0.5,2.4c-0.1,0.9-0.2,1.9-0.2,3s0.1,2.1,0.2,3
		c0.1,0.9,0.3,1.7,0.5,2.4s0.6,1.2,1,1.5c0.4,0.4,0.9,0.5,1.5,0.5c0.6,0,1.1-0.2,1.5-0.5c0.4-0.4,0.7-0.9,1-1.5s0.4-1.5,0.5-2.4
		C93.4,116,93.4,115,93.4,113.9z"/>
	<path class="st4" d="M116.5,113.9c0,3.7-0.7,6.6-2.1,8.6c-1.4,2-3.4,3-5.9,3s-4.5-1-5.9-3c-1.4-2-2.1-4.9-2.1-8.6
		c0-1.9,0.2-3.5,0.6-4.9c0.4-1.4,0.9-2.6,1.6-3.6s1.5-1.7,2.5-2.2c1-0.5,2.1-0.8,3.3-0.8c2.5,0,4.5,1,5.9,3
		C115.7,107.3,116.5,110.2,116.5,113.9z M111.6,113.9c0-1.1-0.1-2.1-0.2-3c-0.1-0.9-0.3-1.7-0.5-2.4s-0.6-1.2-1-1.5
		c-0.4-0.4-0.9-0.5-1.5-0.5c-0.6,0-1.1,0.2-1.5,0.5c-0.4,0.4-0.7,0.9-1,1.5s-0.4,1.4-0.5,2.4c-0.1,0.9-0.2,1.9-0.2,3s0.1,2.1,0.2,3
		c0.1,0.9,0.3,1.7,0.5,2.4s0.6,1.2,1,1.5c0.4,0.4,0.9,0.5,1.5,0.5c0.6,0,1.1-0.2,1.5-0.5c0.4-0.4,0.7-0.9,1-1.5s0.4-1.5,0.5-2.4
		C111.5,116,111.6,115,111.6,113.9z"/>
	<path class="st4" d="M134.6,113.9c0,3.7-0.7,6.6-2.1,8.6c-1.4,2-3.4,3-5.9,3s-4.5-1-5.9-3c-1.4-2-2.1-4.9-2.1-8.6
		c0-1.9,0.2-3.5,0.6-4.9c0.4-1.4,0.9-2.6,1.6-3.6s1.5-1.7,2.5-2.2c1-0.5,2.1-0.8,3.3-0.8c2.5,0,4.5,1,5.9,3
		C133.9,107.3,134.6,110.2,134.6,113.9z M129.8,113.9c0-1.1-0.1-2.1-0.2-3c-0.1-0.9-0.3-1.7-0.5-2.4s-0.6-1.2-1-1.5
		c-0.4-0.4-0.9-0.5-1.5-0.5c-0.6,0-1.1,0.2-1.5,0.5c-0.4,0.4-0.7,0.9-1,1.5s-0.4,1.4-0.5,2.4c-0.1,0.9-0.2,1.9-0.2,3s0.1,2.1,0.2,3
		c0.1,0.9,0.3,1.7,0.5,2.4s0.6,1.2,1,1.5c0.4,0.4,0.9,0.5,1.5,0.5c0.6,0,1.1-0.2,1.5-0.5c0.4-0.4,0.7-0.9,1-1.5s0.4-1.5,0.5-2.4
		C129.7,116,129.8,115,129.8,113.9z"/>
	<path class="st4" d="M152.8,113.9c0,3.7-0.7,6.6-2.1,8.6c-1.4,2-3.4,3-5.9,3s-4.5-1-5.9-3c-1.4-2-2.1-4.9-2.1-8.6
		c0-1.9,0.2-3.5,0.6-4.9c0.4-1.4,0.9-2.6,1.6-3.6s1.5-1.7,2.5-2.2c1-0.5,2.1-0.8,3.3-0.8c2.5,0,4.5,1,5.9,3
		C152.1,107.3,152.8,110.2,152.8,113.9z M147.9,113.9c0-1.1-0.1-2.1-0.2-3c-0.1-0.9-0.3-1.7-0.5-2.4s-0.6-1.2-1-1.5
		c-0.4-0.4-0.9-0.5-1.5-0.5c-0.6,0-1.1,0.2-1.5,0.5c-0.4,0.4-0.7,0.9-1,1.5s-0.4,1.4-0.5,2.4c-0.1,0.9-0.2,1.9-0.2,3s0.1,2.1,0.2,3
		c0.1,0.9,0.3,1.7,0.5,2.4s0.6,1.2,1,1.5c0.4,0.4,0.9,0.5,1.5,0.5c0.6,0,1.1-0.2,1.5-0.5c0.4-0.4,0.7-0.9,1-1.5s0.4-1.5,0.5-2.4
		C147.9,116,147.9,115,147.9,113.9z"/>
</g>
</svg>
