<?xml version="1.0" encoding="utf-8"?>
<!-- Generator: Adobe Illustrator 21.0.1, SVG Export Plug-In . SVG Version: 6.00 Build 0)  -->
<svg version="1.1" id="Группа_1" xmlns="http://www.w3.org/2000/svg" xmlns:xlink="http://www.w3.org/1999/xlink" x="0px"
	 y="0px" viewBox="0 0 139.5 122.6" style="enable-background:new 0 0 139.5 122.6;" xml:space="preserve">
<style type="text/css">
	.st0{fill:#00B5BF;}
	.st1{enable-background:new    ;}
	.st2{fill:#FFFFFF;}
	.st3{fill:#6B7993;}
	.st4{fill:#F27CAA;}
</style>
<circle class="st0" cx="107" cy="32.4" r="32.5"/>
<g class="st1">
	<path class="st2" d="M83.1,33.6h4.6v2.2h-4.6V33.6z"/>
</g>
<g class="st1">
	<path class="st2" d="M88.4,27c0.6-0.2,1.2-0.5,1.8-0.8c0.6-0.3,1.2-0.6,1.8-1c0.6-0.4,1.2-0.8,1.7-1.2c0.5-0.4,1-0.8,1.5-1.3h3.1
		v20.7H94V28.5c-0.6,0.4-1.3,0.8-2,1.1c-0.7,0.3-1.5,0.6-2.2,0.9L88.4,27z"/>
	<path class="st2" d="M119.4,33c0,3.5-0.7,6.2-2,8s-3.2,2.8-5.5,2.8s-4.2-0.9-5.5-2.8s-2-4.5-2-8c0-1.7,0.2-3.3,0.5-4.6
		c0.3-1.3,0.9-2.5,1.5-3.4c0.7-0.9,1.5-1.6,2.4-2.1c0.9-0.5,2-0.7,3.1-0.7c2.3,0,4.2,0.9,5.5,2.8S119.4,29.6,119.4,33z M114.9,33
		c0-1-0.1-2-0.2-2.8c-0.1-0.8-0.3-1.6-0.5-2.2c-0.2-0.6-0.5-1.1-0.9-1.4c-0.4-0.3-0.9-0.5-1.4-0.5s-1,0.2-1.4,0.5
		c-0.4,0.3-0.7,0.8-0.9,1.4c-0.2,0.6-0.4,1.3-0.5,2.2C109,31.1,109,32,109,33s0,2,0.1,2.8c0.1,0.9,0.3,1.6,0.5,2.2
		c0.2,0.6,0.5,1.1,0.9,1.4c0.4,0.3,0.8,0.5,1.4,0.5s1-0.2,1.4-0.5c0.4-0.3,0.7-0.8,0.9-1.4c0.2-0.6,0.4-1.4,0.5-2.2
		C114.8,35,114.9,34.1,114.9,33z"/>
</g>
<g class="st1">
	<path class="st2" d="M126.3,30.2c0,1-0.3,1.8-0.8,2.3c-0.5,0.5-1.2,0.8-2.1,0.8c-0.9,0-1.6-0.3-2.1-0.8c-0.5-0.5-0.8-1.3-0.8-2.3
		c0-1,0.3-1.8,0.8-2.3c0.5-0.5,1.2-0.8,2.1-0.8c0.9,0,1.6,0.3,2.1,0.8C126,28.5,126.3,29.2,126.3,30.2z M124.5,30.2
		c0-0.5-0.1-0.9-0.3-1.2c-0.2-0.2-0.4-0.4-0.7-0.4c-0.3,0-0.6,0.1-0.7,0.4c-0.2,0.2-0.3,0.6-0.3,1.2s0.1,0.9,0.3,1.2
		c0.2,0.3,0.4,0.4,0.7,0.4c0.3,0,0.5-0.1,0.7-0.4C124.4,31.2,124.5,30.8,124.5,30.2z M129.4,27.4h2.2l-6.3,11h-2.2L129.4,27.4z
		 M134.2,35.6c0,1-0.3,1.8-0.8,2.3c-0.5,0.5-1.2,0.8-2.1,0.8c-0.9,0-1.6-0.3-2.1-0.8c-0.5-0.5-0.8-1.3-0.8-2.3c0-1,0.3-1.8,0.8-2.3
		c0.5-0.5,1.2-0.8,2.1-0.8c0.9,0,1.6,0.3,2.1,0.8C133.9,33.8,134.2,34.6,134.2,35.6z M132.4,35.6c0-0.5-0.1-0.9-0.3-1.2
		c-0.2-0.2-0.4-0.4-0.7-0.4c-0.3,0-0.6,0.1-0.7,0.4c-0.2,0.2-0.3,0.6-0.3,1.2s0.1,0.9,0.3,1.2c0.2,0.2,0.4,0.4,0.7,0.4
		c0.3,0,0.5-0.1,0.7-0.4C132.3,36.6,132.4,36.2,132.4,35.6z"/>
</g>
<g>
	<path class="st3" d="M49.9,42.8l-5.9-1.1c-0.1-1-0.5-2.1-1.1-3c-1.3-2-3.5-3.2-5.8-3.2H23c-2.4,0-4.5,1.2-5.8,3.2
		c-0.6,1-1,2.1-1.1,3.2l-4.8,0.8c-1.9,0.3-3.2,1.9-3.2,3.8V50c-0.4-0.4-1-0.5-1.6-0.4l-3.3,0.6C1.3,50.5,0,52.2,0,54l0.1,46.5
		c0,2.8,2.2,5,5,5l34-0.1c1.1,0,1.9-0.9,2-2c0-1.1-0.8-2-2-2.1l-34,0.1c-0.6,0-1-0.4-1-1L3.9,54.2l3.2-0.6c0.4-0.1,0.7-0.2,0.9-0.4
		v39.5c0,2.8,2.3,5,5,4.9H39v0c0.1,0,0.2,0,0.3,0c1.1-0.1,1.9-1,1.9-2.1s-1-1.9-2.1-1.9H29V61.7c0.3,0,0.6,0,0.9,0h0.2
		c3.7,0,5.6,1.3,7.7,2.7c1.1,0.7,2.2,1.4,3.3,2c0.6,0.3,1.3,0.2,1.9-0.1c0.6-0.4,0.9-1,0.9-1.7v-5.9c0-3.5,0-7.4,0-12.9l5.1,0.9
		v28.8c0,0,0,0,0,0c0,1.1,0.8,2,1.9,2v0c0,0,0,0,0,0c1.1,0,2-0.9,1.9-2V46.7C53,44.8,51.7,43.1,49.9,42.8z M20.5,40.9
		c0.6-0.9,1.5-1.4,2.6-1.4h0h14c1,0,2,0.5,2.6,1.4c0.6,0.9,0.7,2,0.3,2.9C37,50.7,33.9,54.9,30,57.3c-3.9-2.4-7-6.6-9.8-13.4
		C19.8,42.9,19.9,41.8,20.5,40.9z M20,58.3c0-1.8,0-3.8,0-6.1c1.5,2.5,3.2,4.6,5,6.2C23.2,59,21.5,59.9,20,61c0,0,0,0-0.1,0V58.3z
		 M25,93.5H13.1c-0.6,0-1-0.4-1-1V46.7l4-0.7c0,5.2,0,9,0,12.4v6.2c0,0.7,0.3,1.3,0.9,1.7c0.3,0.2,0.7,0.3,1.1,0.3
		c0.3,0,0.6-0.1,0.8-0.2c1.2-0.6,2.3-1.3,3.4-2c0.9-0.6,1.8-1.2,2.8-1.7V93.5z M40.1,61.1C40,61.1,40,61,40.1,61.1
		c-1.5-1.2-3.2-2.1-5-2.6c1.8-1.6,3.5-3.7,5-6.2c0,2.4,0,4.5,0,6.4V61.1z"/>
	<path class="st3" d="M33.4,66.9c0-1-0.8-1.8-1.8-1.8c-1,0-1.8,0.8-1.8,1.8c0,1,0.8,1.8,1.8,1.8C32.6,68.7,33.4,67.9,33.4,66.9
		C33.4,66.9,33.4,66.9,33.4,66.9z"/>
	<path class="st3" d="M31.5,75.8c-1,0-1.8,0.8-1.8,1.8c0,1,0.8,1.8,1.8,1.8c1,0,1.8-0.8,1.8-1.8C33.4,76.6,32.6,75.8,31.5,75.8z"/>
	<path class="st3" d="M31.5,86.6c-1,0-1.8,0.8-1.8,1.8c0,1,0.8,1.8,1.8,1.8c1,0,1.8-0.8,1.8-1.8C33.4,87.4,32.6,86.6,31.5,86.6z"/>
	<polygon class="st3" points="33.4,77.7 33.4,77.7 33.4,77.7 	"/>
	<polygon class="st3" points="33.4,88.4 33.4,88.4 33.4,88.4 	"/>
</g>
<g class="st1">
	<path class="st4" d="M58.7,89.2c0,0.8-0.2,1.6-0.5,2.3c-0.3,0.7-0.7,1.5-1.2,2.2c-0.5,0.7-1.1,1.4-1.7,2c-0.6,0.6-1.3,1.2-1.9,1.8
		c-0.3,0.3-0.7,0.6-1,1c-0.4,0.4-0.7,0.8-1.1,1.1c-0.3,0.4-0.6,0.7-0.9,1.1c-0.3,0.3-0.4,0.6-0.5,0.8h9.5v4H44.6
		c0-0.2-0.1-0.5-0.1-0.9c0-0.4,0-0.6,0-0.8c0-1,0.2-2,0.5-2.8c0.3-0.9,0.8-1.6,1.3-2.4c0.5-0.7,1.1-1.4,1.8-2.1
		c0.7-0.6,1.3-1.3,2-1.9c0.5-0.5,1-1,1.4-1.4c0.4-0.4,0.8-0.9,1.2-1.3s0.6-0.8,0.8-1.2c0.2-0.4,0.3-0.8,0.3-1.3c0-0.9-0.3-1.6-0.8-2
		c-0.5-0.4-1.2-0.6-2-0.6c-0.6,0-1.1,0.1-1.6,0.3c-0.5,0.2-1,0.4-1.4,0.6s-0.8,0.5-1.1,0.7c-0.3,0.2-0.5,0.4-0.7,0.6L44,85.9
		c0.9-0.9,2-1.6,3.3-2.2c1.2-0.6,2.6-0.8,4-0.8c1.3,0,2.4,0.1,3.4,0.4c0.9,0.3,1.7,0.7,2.3,1.3c0.6,0.5,1.1,1.2,1.3,2
		C58.6,87.3,58.7,88.2,58.7,89.2z"/>
	<path class="st4" d="M72.5,99c0-0.6-0.1-1.2-0.4-1.6c-0.3-0.5-0.8-0.9-1.4-1.2s-1.6-0.6-2.8-0.7c-1.2-0.2-2.6-0.3-4.4-0.3
		c0.2-2,0.4-4,0.6-6s0.3-4,0.4-5.8h12v4h-8c0,0.8-0.1,1.5-0.1,2.2c-0.1,0.7-0.1,1.3-0.2,1.9c3.1,0.2,5.4,0.9,6.9,2.2
		c1.5,1.2,2.2,3,2.2,5.2c0,1-0.2,2-0.5,2.8c-0.4,0.9-0.9,1.6-1.6,2.3c-0.7,0.6-1.6,1.1-2.7,1.5c-1.1,0.4-2.4,0.5-3.9,0.5
		c-0.6,0-1.2,0-1.8-0.1c-0.6-0.1-1.2-0.2-1.8-0.3s-1.1-0.2-1.6-0.4s-0.8-0.3-1.1-0.4l0.9-3.9c0.5,0.2,1.2,0.5,2.1,0.7
		c0.9,0.2,1.9,0.3,3.1,0.3c1.5,0,2.5-0.3,3.2-0.9C72.2,100.5,72.5,99.8,72.5,99z"/>
	<path class="st4" d="M96.3,94.4c0,3.7-0.7,6.6-2.1,8.6c-1.4,2-3.4,3-5.9,3s-4.5-1-5.9-3c-1.4-2-2.1-4.9-2.1-8.6
		c0-1.9,0.2-3.5,0.6-4.9c0.4-1.4,0.9-2.6,1.6-3.6s1.5-1.7,2.5-2.2s2.1-0.8,3.3-0.8c2.5,0,4.5,1,5.9,3C95.6,87.9,96.3,90.7,96.3,94.4
		z M91.4,94.4c0-1.1-0.1-2.1-0.2-3c-0.1-0.9-0.3-1.7-0.5-2.4s-0.6-1.2-1-1.5c-0.4-0.4-0.9-0.5-1.5-0.5c-0.6,0-1.1,0.2-1.5,0.5
		c-0.4,0.4-0.7,0.9-1,1.5s-0.4,1.4-0.5,2.4c-0.1,0.9-0.2,1.9-0.2,3s0.1,2.1,0.2,3c0.1,0.9,0.3,1.7,0.5,2.4s0.6,1.2,1,1.5
		c0.4,0.4,0.9,0.5,1.5,0.5c0.6,0,1.1-0.2,1.5-0.5c0.4-0.4,0.7-0.9,1-1.5s0.4-1.5,0.5-2.4C91.4,96.5,91.4,95.5,91.4,94.4z"/>
	<path class="st4" d="M114.5,94.4c0,3.7-0.7,6.6-2.1,8.6c-1.4,2-3.4,3-5.9,3s-4.5-1-5.9-3c-1.4-2-2.1-4.9-2.1-8.6
		c0-1.9,0.2-3.5,0.6-4.9c0.4-1.4,0.9-2.6,1.6-3.6s1.5-1.7,2.5-2.2s2.1-0.8,3.3-0.8c2.5,0,4.5,1,5.9,3
		C113.8,87.9,114.5,90.7,114.5,94.4z M109.6,94.4c0-1.1-0.1-2.1-0.2-3c-0.1-0.9-0.3-1.7-0.5-2.4s-0.6-1.2-1-1.5
		c-0.4-0.4-0.9-0.5-1.5-0.5c-0.6,0-1.1,0.2-1.5,0.5c-0.4,0.4-0.7,0.9-1,1.5s-0.4,1.4-0.5,2.4c-0.1,0.9-0.2,1.9-0.2,3s0.1,2.1,0.2,3
		c0.1,0.9,0.3,1.7,0.5,2.4s0.6,1.2,1,1.5c0.4,0.4,0.9,0.5,1.5,0.5c0.6,0,1.1-0.2,1.5-0.5c0.4-0.4,0.7-0.9,1-1.5s0.4-1.5,0.5-2.4
		C109.6,96.5,109.6,95.5,109.6,94.4z"/>
	<path class="st4" d="M132.6,94.4c0,3.7-0.7,6.6-2.1,8.6c-1.4,2-3.4,3-5.9,3s-4.5-1-5.9-3c-1.4-2-2.1-4.9-2.1-8.6
		c0-1.9,0.2-3.5,0.6-4.9c0.4-1.4,0.9-2.6,1.6-3.6s1.5-1.7,2.5-2.2s2.1-0.8,3.3-0.8c2.5,0,4.5,1,5.9,3
		C131.9,87.9,132.6,90.7,132.6,94.4z M127.8,94.4c0-1.1-0.1-2.1-0.2-3c-0.1-0.9-0.3-1.7-0.5-2.4s-0.6-1.2-1-1.5
		c-0.4-0.4-0.9-0.5-1.5-0.5c-0.6,0-1.1,0.2-1.5,0.5c-0.4,0.4-0.7,0.9-1,1.5s-0.4,1.4-0.5,2.4c-0.1,0.9-0.2,1.9-0.2,3s0.1,2.1,0.2,3
		c0.1,0.9,0.3,1.7,0.5,2.4s0.6,1.2,1,1.5c0.4,0.4,0.9,0.5,1.5,0.5c0.6,0,1.1-0.2,1.5-0.5c0.4-0.4,0.7-0.9,1-1.5s0.4-1.5,0.5-2.4
		C127.7,96.5,127.8,95.5,127.8,94.4z"/>
</g>
<g class="st1">
	<path class="st3" d="M113.4,111.5h-4v7.2h-2.7v-9.4h6.7V111.5z"/>
	<path class="st3" d="M123.6,114c0,0.7-0.1,1.4-0.3,2c-0.2,0.6-0.4,1.1-0.8,1.5c-0.3,0.4-0.8,0.8-1.3,1c-0.5,0.2-1.1,0.4-1.8,0.4
		c-0.4,0-0.7,0-1-0.1s-0.6-0.2-0.9-0.3v3.5h-2.7v-12.4c0.2-0.1,0.5-0.1,0.8-0.2c0.3-0.1,0.6-0.1,1-0.2s0.7-0.1,1-0.1
		c0.4,0,0.7,0,1,0c0.8,0,1.5,0.1,2.1,0.3c0.6,0.2,1.1,0.6,1.5,1c0.4,0.4,0.7,0.9,1,1.5C123.5,112.6,123.6,113.2,123.6,114z
		 M120.9,114.1c0-0.8-0.2-1.5-0.6-2c-0.4-0.5-0.9-0.7-1.6-0.7c-0.2,0-0.5,0-0.7,0c-0.2,0-0.4,0-0.5,0.1v4.8c0.2,0.1,0.4,0.2,0.7,0.3
		s0.5,0.1,0.8,0.1C120.2,116.6,120.9,115.8,120.9,114.1z"/>
	<path class="st3" d="M133.7,118.7h-2.7V115h-2.8v3.7h-2.7v-9.4h2.7v3.5h2.8v-3.5h2.7V118.7z"/>
</g>
</svg>
