<?xml version="1.0" encoding="utf-8"?>
<!-- Generator: Adobe Illustrator 21.0.1, SVG Export Plug-In . SVG Version: 6.00 Build 0)  -->
<svg version="1.1" id="Группа_4" xmlns="http://www.w3.org/2000/svg" xmlns:xlink="http://www.w3.org/1999/xlink" x="0px"
	 y="0px" viewBox="0 0 241 80" style="enable-background:new 0 0 241 80;" xml:space="preserve">
<style type="text/css">
	.st0{enable-background:new    ;}
	.st1{fill:#F27CAA;}
	.st2{fill:#6B7993;}
	.st3{fill:#00B5BF;}
	.st4{fill:#FFFFFF;}
</style>
<g class="st0">
	<path class="st1" d="M61.7,75.1c-1.4-2.6-2.9-5-4.4-7.4c-1.5-2.4-3.2-4.7-4.9-6.9v14.3h-4.9V52.8h4.1c0.7,0.7,1.5,1.6,2.3,2.6
		s1.6,2.1,2.5,3.2s1.7,2.3,2.5,3.5c0.8,1.2,1.5,2.4,2.2,3.6V52.8h5v22.3H61.7z M80.2,58.5c0,0.9-0.2,1.8-0.5,2.5
		c-0.3,0.8-0.7,1.4-1.3,1.9s-1.2,0.9-2,1.2c-0.8,0.3-1.6,0.4-2.5,0.4c-0.9,0-1.7-0.1-2.5-0.4s-1.4-0.7-2-1.2s-1-1.2-1.3-1.9
		c-0.3-0.7-0.5-1.6-0.5-2.5c0-0.9,0.2-1.8,0.5-2.5s0.7-1.4,1.3-1.9c0.6-0.5,1.2-0.9,2-1.2c0.8-0.3,1.6-0.4,2.5-0.4
		c0.9,0,1.7,0.1,2.5,0.4c0.8,0.3,1.4,0.7,2,1.2c0.6,0.5,1,1.2,1.3,1.9S80.2,57.5,80.2,58.5z M68.5,67.2h10.9v4H68.5V67.2z
		 M76.3,58.5c0-0.8-0.2-1.5-0.6-2c-0.4-0.5-1-0.7-1.8-0.7c-0.8,0-1.3,0.2-1.7,0.7c-0.4,0.5-0.6,1.1-0.6,2c0,0.8,0.2,1.4,0.6,1.9
		c0.4,0.5,1,0.7,1.7,0.7c0.8,0,1.4-0.2,1.8-0.7C76.1,59.9,76.3,59.2,76.3,58.5z"/>
	<path class="st1" d="M96.8,58.7c0,0.8-0.2,1.6-0.5,2.3c-0.3,0.8-0.7,1.5-1.3,2.2c-0.5,0.7-1.1,1.4-1.7,2c-0.6,0.6-1.3,1.3-1.9,1.8
		c-0.3,0.3-0.7,0.6-1,1c-0.4,0.4-0.7,0.8-1.1,1.1c-0.3,0.4-0.6,0.7-0.9,1.1s-0.4,0.6-0.5,0.8h9.6v4H82.6c0-0.2-0.1-0.5-0.1-0.9
		c0-0.4,0-0.6,0-0.8c0-1,0.2-2,0.5-2.8c0.3-0.9,0.8-1.7,1.3-2.4c0.5-0.7,1.1-1.4,1.8-2.1c0.7-0.6,1.3-1.3,2-1.9c0.5-0.5,1-1,1.4-1.4
		c0.5-0.4,0.8-0.9,1.2-1.3c0.3-0.4,0.6-0.8,0.8-1.3c0.2-0.4,0.3-0.8,0.3-1.3c0-0.9-0.3-1.6-0.8-2c-0.5-0.4-1.2-0.6-2-0.6
		c-0.6,0-1.1,0.1-1.6,0.3c-0.5,0.2-1,0.4-1.4,0.6c-0.4,0.2-0.8,0.5-1.1,0.7s-0.5,0.4-0.7,0.6L82,55.3c0.9-0.9,2-1.6,3.3-2.2
		c1.3-0.6,2.6-0.9,4-0.9c1.3,0,2.4,0.1,3.4,0.4s1.7,0.7,2.3,1.3s1.1,1.2,1.3,2S96.8,57.7,96.8,58.7z"/>
</g>
<g>
	<path class="st2" d="M33.4,47.1c0-1-0.8-1.8-1.8-1.8c-1,0-1.8,0.8-1.8,1.8c0,1,0.8,1.8,1.8,1.8C32.6,49,33.4,48.2,33.4,47.1
		C33.4,47.1,33.4,47.1,33.4,47.1z"/>
	<path class="st2" d="M31.5,38.2c1,0,1.8-0.8,1.8-1.8c0-1-0.8-1.8-1.8-1.8c-1,0-1.8,0.8-1.8,1.8C29.7,37.4,30.5,38.2,31.5,38.2z"/>
	<path class="st2" d="M31.5,56.1c-1,0-1.8,0.8-1.8,1.8c0,1,0.8,1.8,1.8,1.8c1,0,1.8-0.8,1.8-1.8C33.4,56.9,32.5,56.1,31.5,56.1z"/>
	<path class="st2" d="M49.8,12.2l-5.9-1.1c-0.1-1-0.5-2.1-1.1-3C41.5,6.2,39.3,5,37,5H23c-2.3,0-4.5,1.2-5.8,3.2
		c-0.6,1-1,2.1-1.1,3.2l-4.8,0.8C9.4,12.5,8.1,14.1,8,16v3.5c-0.4-0.4-1-0.6-1.6-0.5l-3.3,0.6C1.3,20,0,21.6,0,23.5l0.1,46.6
		c0,2.8,2.2,5,5,5L39,75c1.1,0,1.9-0.9,2-2c0-1.1-0.8-2-2-2.1L5,71c-0.6,0-1-0.4-1-1L3.9,23.6L7.1,23C7.5,23,7.8,22.8,8,22.6v39.5
		c0,2.8,2.3,5,5,5H27c0,0,0,0,0,0h12c0.1,0,0.2,0,0.3,0c1.1-0.1,1.9-1,1.9-2.1c-0.1-1.1-1-1.9-2.1-1.9H29V31.2c0.3,0,0.6,0,0.9-0.1
		l0.2,0c3.7,0,5.6,1.3,7.7,2.7c1.1,0.7,2.2,1.4,3.3,2c0.6,0.3,1.3,0.2,1.9-0.1c0.6-0.4,0.9-1,0.9-1.7v-5.9c0-3.5,0-7.4,0-12.9
		l5.1,0.9V45c0,1.1,0.8,2,1.9,2h0c1.1,0,2-0.9,1.9-2V16.1C53,14.2,51.7,12.6,49.8,12.2z M20.5,10.4C21,9.5,22,9,23,9h14
		c1,0,2,0.5,2.6,1.4c0.6,0.9,0.7,2,0.3,2.9C37,20.2,33.9,24.4,30,26.7c-3.9-2.3-7-6.5-9.8-13.4C19.8,12.3,19.9,11.3,20.5,10.4z
		 M20,27.8c0-1.8,0-3.8,0-6.1c1.5,2.5,3.2,4.6,5,6.2c-1.8,0.6-3.4,1.4-4.9,2.6c0,0,0,0-0.1,0V27.8z M25,63.1H13.1c-0.6,0-1-0.4-1-1
		v-46l4-0.7c0,5.2,0,9,0,12.4V34c0,0.7,0.3,1.3,0.9,1.7c0.3,0.2,0.7,0.3,1.1,0.3c0.3,0,0.6-0.1,0.8-0.2c1.2-0.6,2.3-1.3,3.4-2
		c0.9-0.6,1.8-1.2,2.8-1.7V63.1z M40,30.6C40,30.5,40,30.5,40,30.6c-1.5-1.2-3.2-2.1-5-2.6c1.8-1.6,3.5-3.7,5-6.2c0,2.4,0,4.5,0,6.4
		V30.6z"/>
</g>
<ellipse id="Ellipse_1_copy" class="st3" cx="201" cy="40" rx="40" ry="40"/>
<g class="st0">
	<path class="st4" d="M176.8,38.1l6.4,0l0,3l-6.4,0L176.8,38.1z"/>
</g>
<g class="st0">
	<path class="st4" d="M199.8,45.2c0-0.8-0.2-1.5-0.5-2.2c-0.4-0.6-1-1.2-1.9-1.6c-0.9-0.4-2.1-0.7-3.6-1c-1.5-0.2-3.4-0.3-5.7-0.3
		c0.3-2.6,0.6-5.3,0.7-7.9c0.2-2.7,0.3-5.2,0.5-7.6l15.7,0l0,5.3l-10.5,0c-0.1,1-0.1,2-0.2,2.9c-0.1,0.9-0.1,1.8-0.2,2.5
		c4.1,0.3,7.1,1.2,9.1,2.9c1.9,1.6,2.9,3.9,2.9,6.8c0,1.3-0.2,2.6-0.7,3.7c-0.5,1.2-1.2,2.1-2.1,3c-1,0.8-2.1,1.5-3.6,2
		c-1.4,0.5-3.1,0.7-5.1,0.7c-0.8,0-1.5,0-2.4-0.1c-0.8-0.1-1.6-0.2-2.4-0.4c-0.8-0.2-1.5-0.3-2.1-0.5c-0.6-0.2-1.1-0.3-1.4-0.5
		l1.1-5.2c0.7,0.3,1.6,0.6,2.8,0.9c1.1,0.3,2.5,0.4,4.1,0.4c1.9,0,3.3-0.4,4.2-1.2C199.3,47.1,199.8,46.2,199.8,45.2z"/>
</g>
<g class="st0">
	<path class="st4" d="M216.7,40.9c0,1.4-0.3,2.4-1.1,3.2c-0.7,0.7-1.6,1.1-2.8,1.1c-1.2,0-2.1-0.4-2.8-1.1c-0.7-0.7-1.1-1.8-1.1-3.2
		c0-1.4,0.3-2.4,1.1-3.2c0.7-0.7,1.6-1.1,2.8-1.1c1.2,0,2.1,0.4,2.8,1.1C216.4,38.5,216.7,39.6,216.7,40.9z M214.2,40.9
		c0-0.7-0.1-1.3-0.4-1.6c-0.3-0.3-0.6-0.5-1-0.5c-0.4,0-0.8,0.2-1,0.5c-0.3,0.3-0.4,0.9-0.4,1.6c0,0.7,0.1,1.3,0.4,1.6
		c0.3,0.3,0.6,0.5,1,0.5c0.4,0,0.7-0.2,1-0.5C214.1,42.2,214.2,41.7,214.2,40.9z M221,37l3.1,0l-8.6,15.3l-3.1,0L221,37z
		 M227.6,48.3c0,1.4-0.3,2.4-1.1,3.2c-0.7,0.7-1.6,1.1-2.8,1.1c-1.2,0-2.1-0.4-2.8-1.1c-0.7-0.7-1.1-1.8-1.1-3.2s0.3-2.4,1.1-3.2
		c0.7-0.7,1.6-1.1,2.8-1.1c1.2,0,2.1,0.4,2.8,1.1C227.2,45.9,227.6,47,227.6,48.3z M225.1,48.3c0-0.7-0.1-1.3-0.4-1.6
		c-0.3-0.3-0.6-0.5-1-0.5c-0.4,0-0.8,0.2-1,0.5c-0.3,0.3-0.4,0.9-0.4,1.6c0,0.7,0.1,1.3,0.4,1.6c0.3,0.3,0.6,0.5,1,0.5
		c0.4,0,0.7-0.2,1-0.5C225,49.6,225.1,49.1,225.1,48.3z"/>
</g>
<g class="st0">
	<path class="st2" d="M116.2,32.4h19.7v5.2h-19.7V32.4z M116.2,41.6h19.7v5.2h-19.7V41.6z"/>
</g>
</svg>
